HIERARCHY
ROOT Hips
{
 OFFSET 0.000000 0.000000 0.000000
 CHANNELS 6 Xposition Yposition Zposition Yrotation Xrotation Zrotation
 JOINT Chest
 {
  OFFSET 0.000000 9.585900 0.002600
  CHANNELS 3 Yrotation Xrotation Zrotation
  JOINT Chest2
  {
   OFFSET 0.000000 9.601200 -0.005300
   CHANNELS 3 Yrotation Xrotation Zrotation
   JOINT Chest3
   {
    OFFSET 0.000000 9.561800 0.000000
    CHANNELS 3 Yrotation Xrotation Zrotation
    JOINT Chest4
    {
     OFFSET 0.000000 9.552100 0.000000
     CHANNELS 3 Yrotation Xrotation Zrotation
     JOINT Neck
     {
      OFFSET 0.000000 14.453000 0.000000
      CHANNELS 3 Yrotation Xrotation Zrotation
      JOINT Head
      {
       OFFSET 0.000000 8.936500 -0.011300
       CHANNELS 3 Yrotation Xrotation Zrotation
       End Site
       {
        OFFSET 0.000000 17.073600 -0.006000
       }
      }
     }
     JOINT RightCollar
     {
      OFFSET -2.921100 9.558500 0.000000
      CHANNELS 3 Yrotation Xrotation Zrotation
      JOINT RightShoulder
      {
       OFFSET -13.519700 0.000000 0.000000
       CHANNELS 3 Yrotation Xrotation Zrotation
       JOINT RightElbow
       {
        OFFSET 0.000000 -29.696600 0.000000
        CHANNELS 3 Yrotation Xrotation Zrotation
        JOINT RightWrist
        {
         OFFSET 0.000000 -24.004700 0.000000
         CHANNELS 3 Yrotation Xrotation Zrotation
         End Site
         {
          OFFSET 0.000000 -17.728500 0.000000
         }
        }
       }
      }
     }
     JOINT LeftCollar
     {
      OFFSET 2.921100 9.558500 0.000000
      CHANNELS 3 Yrotation Xrotation Zrotation
      JOINT LeftShoulder
      {
       OFFSET 13.519700 0.000000 0.000000
       CHANNELS 3 Yrotation Xrotation Zrotation
       JOINT LeftElbow
       {
        OFFSET 0.000000 -29.696600 0.000000
        CHANNELS 3 Yrotation Xrotation Zrotation
        JOINT LeftWrist
        {
         OFFSET 0.000000 -24.004700 0.000000
         CHANNELS 3 Yrotation Xrotation Zrotation
         End Site
         {
          OFFSET 0.000000 -17.728500 0.000000
         }
        }
       }
      }
     }
    }
   }
  }
 }
 JOINT RightHip
 {
  OFFSET -7.771700 -0.012900 -0.001300
  CHANNELS 3 Yrotation Xrotation Zrotation
  JOINT RightKnee
  {
   OFFSET 0.000000 -40.869800 0.001200
   CHANNELS 3 Yrotation Xrotation Zrotation
   JOINT RightAnkle
   {
    OFFSET 0.000000 -39.717900 0.002100
    CHANNELS 3 Yrotation Xrotation Zrotation
    JOINT RightToe
    {
     OFFSET 0.000000 -4.965400 11.033500
     CHANNELS 3 Yrotation Xrotation Zrotation
     End Site
     {
      OFFSET 0.000000 -1.423100 5.872300
     }
    }
   }
  }
 }
 JOINT LeftHip
 {
  OFFSET 7.771700 -0.012900 -0.001300
  CHANNELS 3 Yrotation Xrotation Zrotation
  JOINT LeftKnee
  {
   OFFSET 0.000000 -40.869800 0.001200
   CHANNELS 3 Yrotation Xrotation Zrotation
   JOINT LeftAnkle
   {
    OFFSET 0.000000 -39.717900 0.002100
    CHANNELS 3 Yrotation Xrotation Zrotation
    JOINT LeftToe
    {
     OFFSET 0.000000 -4.965400 11.033500
     CHANNELS 3 Yrotation Xrotation Zrotation
     End Site
     {
      OFFSET 0.000000 -1.423100 5.872300
     }
    }
   }
  }
 }
}
MOTION
Frames: 15
Frame Time: 0.008333
0.000000 85.388000 0.000000 0.000000 -5.767877 0.000000 0.000000 11.653817 0.000000 0.000000 -5.885947 0.000000 0.000000 -0.000000 0.000000 0.000000 -0.000000 0.000000 0.000000 12.528835 0.000000 0.000000 0.711642 0.000000 0.000000 -0.000000 0.000000 0.000000 0.000000 -90.000000 0.000000 -2.309062 0.000000 0.000000 2.309062 0.000000 0.000000 -0.000000 0.000000 0.000000 -0.000000 90.000000 0.000000 -2.309062 0.000000 0.000000 2.309062 0.000000 0.000000 8.520406 0.000000 0.000000 1.905762 0.000000 -0.000000 -4.658285 0.000000 0.000000 -0.000000 0.000000 0.000000 8.520406 0.000000 0.000000 1.905762 0.000000 -0.000000 -4.658285 0.000000 0.000000 -0.000000 0.000000
-22.172270 53.112265 6.331407 -177.224065 -12.068097 -2.360622 -0.399977 10.161221 0.323316 -0.025332 0.621534 0.025938 -0.056276 1.068527 0.041223 -0.364575 9.408895 0.356081 5.343605 20.557783 -0.344084 5.844428 -3.723273 -1.597973 3.301130 -8.545750 -1.541270 18.434044 -9.205408 0.015314 -104.221156 -81.321846 141.410512 -2.686580 -11.148743 -6.283705 -4.449193 -5.892263 3.431276 -8.269810 -9.072092 -0.534934 40.469094 -65.221763 -78.121001 1.581984 -9.972226 -1.996953 5.536528 -66.102950 6.812187 -170.715893 86.363858 -170.545673 -13.086507 -22.548712 13.228845 0.018350 -0.039582 0.032749 0.258015 -65.002565 -1.861774 119.855326 77.431350 117.326803 -5.717952 -19.183275 -1.900291 -0.012197 0.063104 -0.030186
-22.172348 53.105354 6.324941 -177.228108 -12.063398 -2.341359 -0.411308 10.159031 0.301261 -0.025815 0.619147 0.025251 -0.053430 1.062828 0.040020 -0.371818 9.387703 0.341184 5.309300 20.695237 -0.347746 5.809730 -3.567064 -1.594035 3.316684 -8.553701 -1.520241 18.454077 -9.201226 -0.040988 -104.273020 -81.305776 141.423968 -2.688696 -11.172001 -6.299836 -4.443410 -5.868477 3.436470 -8.293765 -9.094037 -0.491440 40.602563 -65.232874 -78.237959 1.600458 -9.938561 -1.984039 5.587974 -66.123084 6.815065 -169.968099 86.342039 -169.757032 -13.428535 -22.510747 13.270588 0.003077 -0.023248 0.053461 0.183961 -65.018656 -1.830785 119.908677 77.392473 117.349603 -5.702238 -19.186111 -1.912038 -0.024693 0.057916 -0.036637
-22.170466 53.098055 6.316665 -177.244698 -12.065075 -2.330320 -0.407702 10.157517 0.289385 -0.026178 0.616763 0.024341 -0.044882 1.065500 0.041852 -0.375092 9.355267 0.321395 5.279299 20.826585 -0.348911 5.779062 -3.417293 -1.588367 3.310932 -8.517926 -1.492426 18.432326 -9.262996 -0.114716 -104.015673 -81.277181 141.175073 -2.722958 -11.175103 -6.295791 -4.448888 -5.833169 3.443918 -8.300330 -9.127695 -0.454849 40.701537 -65.237093 -78.330643 1.577428 -9.921574 -1.989713 5.623815 -66.139263 6.860104 -169.031144 86.321528 -168.767878 -13.851412 -22.463582 13.324444 -0.015851 -0.005130 0.069665 0.164085 -65.024330 -1.824821 120.007796 77.365113 117.459673 -5.695088 -19.207727 -1.941188 -0.014175 0.055338 -0.036406
-22.168195 53.090006 6.310834 -177.257297 -12.050572 -2.321894 -0.402852 10.121628 0.273590 -0.025321 0.610969 0.022311 -0.045890 1.076120 0.046100 -0.367983 9.352138 0.316976 5.264679 20.891023 -0.348849 5.734979 -3.229361 -1.584882 3.298762 -8.488081 -1.471657 18.428129 -9.284885 -0.133827 -104.273497 -81.298803 141.422252 -2.743745 -11.179418 -6.301774 -4.477858 -5.791848 3.394143 -8.285133 -9.168471 -0.375070 40.755368 -65.235843 -78.381708 1.548492 -9.916444 -2.004232 5.651137 -66.159324 6.822294 -169.446546 86.302874 -169.233001 -13.602670 -22.481997 13.291568 -0.001738 -0.025175 0.056991 0.137351 -65.046794 -1.815062 120.055399 77.346044 117.505448 -5.679219 -19.214941 -1.953675 -0.015547 0.054755 -0.042721
-22.167251 53.081994 6.306238 -177.270971 -12.031801 -2.306295 -0.387783 10.088221 0.256294 -0.027485 0.612740 0.023259 -0.047241 1.068175 0.042613 -0.351360 9.324117 0.299797 5.243816 20.980363 -0.328148 5.692499 -3.051081 -1.583970 3.270704 -8.426120 -1.428818 18.416751 -9.307853 -0.150831 -104.362993 -81.308816 141.500545 -2.775732 -11.137571 -6.328582 -4.509081 -5.722382 3.384616 -8.277862 -9.192052 -0.333504 40.770031 -65.234602 -78.395212 1.531967 -9.922522 -2.015446 5.706239 -66.183058 6.750118 -169.938849 86.286398 -169.778077 -13.312258 -22.507266 13.255969 0.013639 -0.039802 0.045074 0.138672 -65.071642 -1.826872 120.080933 77.331589 117.525165 -5.669202 -19.218454 -1.957551 -0.020172 0.057805 -0.044317
-22.165799 53.075072 6.300322 -177.271435 -12.026850 -2.298756 -0.379434 10.068672 0.244117 -0.035540 0.622999 0.028133 -0.042340 1.051223 0.036844 -0.329038 9.302303 0.282111 5.186671 21.164736 -0.343156 5.672135 -2.988285 -1.570826 3.240772 -8.367845 -1.381477 18.301598 -9.319777 -0.101186 -104.045077 -81.308964 141.223224 -2.737684 -11.108091 -6.261697 -4.544982 -5.651005 3.378486 -8.268703 -9.258445 -0.284517 40.805366 -65.215133 -78.425536 1.540631 -9.882999 -2.021915 5.729734 -66.196913 6.749729 -169.621220 86.267700 -169.454673 -13.423353 -22.496416 13.275221 0.010088 -0.029585 0.049326 0.141979 -65.079093 -1.839274 120.110790 77.328742 117.558044 -5.664005 -19.225333 -1.964800 -0.022768 0.064431 -0.037945
-22.164188 53.069040 6.295439 -177.272663 -12.024617 -2.293593 -0.370555 10.055755 0.235272 -0.032304 0.616530 0.026283 -0.040728 1.047666 0.035547 -0.311313 9.298151 0.269367 5.151570 21.246471 -0.336589 5.628064 -2.853282 -1.574474 3.218479 -8.326853 -1.335623 18.210742 -9.307750 -0.044813 -103.776639 -81.317924 141.008134 -2.680174 -11.093112 -6.234046 -4.576387 -5.592066 3.374066 -8.259689 -9.331523 -0.244273 40.891168 -65.166550 -78.480742 1.524628 -9.813329 -2.049205 5.753640 -66.207817 6.753131 -169.261906 86.252427 -169.078737 -13.584231 -22.481979 13.301550 0.005353 -0.016522 0.052677 0.106937 -65.091819 -1.829684 120.161583 77.315526 117.609591 -5.652779 -19.226358 -1.976286 -0.035562 0.066712 -0.031614
-22.162988 53.064260 6.290665 -177.283964 -12.032936 -2.285304 -0.357281 10.060145 0.227813 -0.007170 0.595324 0.014745 -0.053878 1.055258 0.038873 -0.290902 9.302048 0.262155 5.105374 21.354819 -0.357310 5.592374 -2.772878 -1.572617 3.195829 -8.296656 -1.292858 18.170056 -9.303856 -0.033875 -103.229955 -81.274663 140.466125 -2.708244 -11.057502 -6.231182 -4.606033 -5.542792 3.370390 -8.262156 -9.401924 -0.219083 40.888858 -65.122963 -78.450134 1.507431 -9.783530 -2.071589 5.778738 -66.206846 6.754070 -169.121732 86.241932 -168.938471 -13.680364 -22.472216 13.323185 0.003644 -0.010242 0.050824 0.085467 -65.091998 -1.823892 120.224120 77.313246 117.684553 -5.647243 -19.225073 -1.989483 -0.015520 0.061741 -0.036312
-22.161495 53.060137 6.289198 -177.284398 -12.032032 -2.280963 -0.343106 10.048348 0.220608 -0.013923 0.602111 0.018359 -0.031233 1.044454 0.031463 -0.302007 9.313406 0.264877 5.075114 21.452898 -0.393575 5.559685 -2.705831 -1.580040 3.187624 -8.278782 -1.269602 18.135409 -9.295099 -0.013675 -102.529436 -81.211916 139.772482 -2.705640 -11.039573 -6.220218 -4.616162 -5.501836 3.357599 -8.258414 -9.465399 -0.208746 40.865134 -65.087554 -78.400481 1.494549 -9.735031 -2.099253 5.765444 -66.214005 6.783093 -168.958486 86.231907 -168.786692 -13.788076 -22.455908 13.348901 0.004707 -0.006854 0.049204 0.046707 -65.102167 -1.809900 120.247438 77.301161 117.703082 -5.631621 -19.221388 -2.002038 -0.021235 0.059735 -0.035971
-22.163621 53.057022 6.288621 -177.291520 -12.038277 -2.253697 -0.319345 10.047045 0.201857 -0.027486 0.606623 0.014020 -0.027801 1.047588 0.034290 -0.294936 9.312463 0.257783 5.054969 21.490069 -0.403538 5.527116 -2.593050 -1.615731 3.172307 -8.273469 -1.257515 18.092184 -9.249975 0.064430 -101.973470 -81.170812 139.248231 -2.668957 -11.018552 -6.212293 -4.625761 -5.457623 3.347384 -8.249136 -9.526669 -0.214633 40.820746 -65.062629 -78.332773 1.485930 -9.702060 -2.126338 5.803198 -66.214992 6.767902 -168.763988 86.222995 -168.587000 -13.993173 -22.435525 13.385812 -0.000190 0.004805 0.049267 0.002842 -65.109060 -1.811643 120.252269 77.265565 117.670925 -5.602282 -19.209895 -2.005387 -0.048930 0.050858 -0.044070
-22.163059 53.055214 6.288254 -177.301344 -12.053512 -2.241871 -0.308245 10.061654 0.195074 -0.019526 0.605086 0.013876 -0.032408 1.055326 0.038772 -0.277674 9.314167 0.247838 5.018054 21.572675 -0.440496 5.510716 -2.548605 -1.642485 3.167895 -8.246401 -1.234123 18.049512 -9.170958 0.179521 -101.838642 -81.176793 139.146463 -2.623627 -10.988171 -6.212358 -4.641245 -5.414006 3.341051 -8.201532 -9.581733 -0.253594 40.718764 -65.057428 -78.242171 1.473772 -9.686870 -2.138644 5.796248 -66.200655 6.777320 -168.890516 86.221870 -168.737586 -13.985145 -22.436614 13.389899 0.002754 0.004659 0.040470 -0.005244 -65.098375 -1.817551 120.249543 77.255989 117.671824 -5.595639 -19.206990 -2.023773 -0.045310 0.048578 -0.038095
-22.160584 53.053872 6.291004 -177.307444 -12.058728 -2.241218 -0.301620 10.067653 0.199834 -0.018690 0.607817 0.017670 -0.037109 1.061206 0.039466 -0.265598 9.323391 0.240590 4.990927 21.643129 -0.484760 5.503642 -2.512894 -1.676728 3.187260 -8.169105 -1.210413 18.017792 -9.187040 0.204682 -101.379996 -81.136887 138.705673 -2.573995 -10.955041 -6.210149 -4.644996 -5.391819 3.334528 -8.152242 -9.595938 -0.292748 40.674071 -65.062072 -78.212268 1.496054 -9.710213 -2.122841 5.780176 -66.193512 6.776446 -169.195322 86.225463 -169.075824 -13.813561 -22.452883 13.365938 0.010736 -0.001200 0.027120 -0.028321 -65.097436 -1.804564 120.231546 77.246499 117.657776 -5.591876 -19.207785 -2.033749 -0.041983 0.052355 -0.041067
-22.160453 53.053271 6.294114 -177.320202 -12.070564 -2.224910 -0.296686 10.084122 0.195483 -0.018248 0.609876 0.017344 -0.039360 1.063493 0.036546 -0.261067 9.367477 0.244805 4.975935 21.643077 -0.528182 5.501476 -2.448301 -1.726257 3.204393 -8.167473 -1.219472 18.005108 -9.219121 0.200720 -100.575970 -81.052270 137.905007 -2.524479 -10.920659 -6.201325 -4.640934 -5.432313 3.324586 -8.102588 -9.561420 -0.340759 40.661214 -65.076012 -78.214813 1.489112 -9.714760 -2.120144 5.796409 -66.187857 6.801228 -168.661520 86.227296 -168.520912 -14.015050 -22.432116 13.393040 -0.000117 0.015253 0.027495 -0.004800 -65.088931 -1.831021 120.209588 77.244443 117.642575 -5.588054 -19.200350 -2.047263 -0.035968 0.049715 -0.038495
-22.160613 53.053230 6.297536 -177.326409 -12.086286 -2.208017 -0.300443 10.102750 0.185827 -0.026748 0.614778 0.022004 -0.031379 1.063010 0.029747 -0.259858 9.386179 0.244745 4.974578 21.634728 -0.546447 5.507647 -2.357086 -1.788674 3.217615 -8.138684 -1.224216 17.973118 -9.143203 0.310220 -100.621031 -81.060867 137.985252 -2.480312 -10.882399 -6.188705 -4.628508 -5.396855 3.318658 -8.072083 -9.564837 -0.370544 40.672833 -65.115614 -78.246779 1.506606 -9.713731 -2.097801 5.725681 -66.177137 6.911968 -167.841317 86.225448 -167.692216 -14.288917 -22.399922 13.423492 -0.014253 0.029320 0.026773 0.024348 -65.074399 -1.865123 120.164713 77.240662 117.603338 -5.595452 -19.193680 -2.050653 -0.030914 0.048870 -0.037269
